<?xml version="1.0" encoding="UTF-8"?>
<svg id="Layer_1" xmlns="http://www.w3.org/2000/svg" version="1.1" xmlns:xlink="http://www.w3.org/1999/xlink" viewBox="0 0 512 512">
  <!-- Generator: Adobe Illustrator 29.0.1, SVG Export Plug-In . SVG Version: 2.1.0 Build 192)  -->
  <defs>
    <style>
      .st0 {
        fill: url(#linear-gradient2);
      }

      .st1 {
        fill: #ffbc5d;
      }

      .st2 {
        fill: url(#linear-gradient1);
        opacity: .1;
      }

      .st3 {
        fill: url(#linear-gradient4);
      }

      .st4 {
        fill: url(#linear-gradient3);
      }

      .st5 {
        fill: url(#linear-gradient);
      }
    </style>
    <linearGradient id="linear-gradient" x1="75.1" y1="68.9" x2="427.5" y2="446.8" gradientUnits="userSpaceOnUse">
      <stop offset="0" stop-color="#ffdb6e"/>
      <stop offset="1" stop-color="#ffbc5e"/>
    </linearGradient>
    <linearGradient id="linear-gradient1" x1="16" y1="256" x2="258.5" y2="256" gradientUnits="userSpaceOnUse">
      <stop offset="0" stop-color="#ffdb6e"/>
      <stop offset="1" stop-color="#ffbc5e"/>
    </linearGradient>
    <linearGradient id="linear-gradient2" x1="159.7" y1="315" x2="217.6" y2="315" gradientUnits="userSpaceOnUse">
      <stop offset="0" stop-color="#ffdb6e"/>
      <stop offset="1" stop-color="#ffbc5e"/>
    </linearGradient>
    <linearGradient id="linear-gradient3" x1="115.4" y1="206.4" x2="181.2" y2="206.4" gradientUnits="userSpaceOnUse">
      <stop offset="0" stop-color="#ffdb6e"/>
      <stop offset="1" stop-color="#ffbc5e"/>
    </linearGradient>
    <linearGradient id="linear-gradient4" x1="94.4" y1="319.5" x2="139.3" y2="319.5" xlink:href="#linear-gradient1"/>
  </defs>
  <g>
    <path class="st1" d="M491.7,311.7c-7.9-1.9-16.5-1.5-23.7,2.3-5.6,3.9-11.1,8.8-12.6,15.7-.1.8-.3,1.5-.4,2.3-3.1,0-6.2,0-9.3,0q-1.9,0-3.8,0c-3.7,0-7.2,0-10.8-.3-4.4-1-6.1-3-8.7-6.6q-1.4-2.1-2.8-3.7c-5-5.2-9.7-10.5-14.2-16-3.5-4.4-7.2-8.7-11-12.9-.8-.8-1.6-1.7-2.4-2.5-.5-.6-1.1-1.2-1.6-1.8-4.6-4.6-7.9-6-14.4-6.1-1,0-2,0-3,0-3.4,0-6.8,0-10.2,0-2.4,0-4.9,0-7.3,0-6.4,0-12.7,0-19.1.1-7.9.1-15.8.2-23.7.2-5,0-10,0-14.9,0-8.1,0-15.9.2-23.8.2v-54c11.9,0,23.9,0,35.8,0,8.5,0,17,0,25.6,0,5.9,0,11.8,0,17.6,0,2.5,0,5,0,7.5,0,3.6,0,7.2,0,10.8,0h3.3c1.1,0,2.1,0,3.1,0q1.4,0,2.8,0c.8,0,1.7,0,2.5,0,3.3-.4,4.9-2,7-4.4,3.6-4.6,7.3-9,11.2-13.3,3.2-3.4,6.3-6.7,9.2-10.3q1.1-1.4,2.2-2.7c1.5-1.8,3-3.7,4.5-5.5,2.2-3.5,4.2-6.8,7.1-9.7q14.3-4.4,29.9-2.3c3.5,7.4,7.2,13,14.2,17.4,8.5,4,18.4,4.1,27.2,1,7.3-3.4,12.3-9.1,15.7-16.4,2.4-8.1,2.4-17.8-1-25.6-4.2-7-10.5-12.9-18.5-15-7.9-1.2-16.5-1.7-23.5,2.6-5.5,4-11,8.8-12.6,15.7-.1.8-.3,1.5-.4,2.3-3.7,0-7.4-.1-11.1-.2-1.5,0-3,0-4.6,0-2.2,0-4.5,0-6.7,0-.7,0-1.4,0-2.1,0q-2,0-4,0c-4.5.4-7,1.9-10.1,5-3,3.7-6.1,7.2-9.3,10.7-4,4.3-7.9,8.6-11.5,13.2-3.3,4.1-6.8,8.1-10.4,11.9-1.7,1.8-3.4,3.7-5.1,5.6-.7,1.4-1.3,2.7-2,4h-104v-29c12.4,0,24.8.2,37.1.2,6.3,0,12.6,0,18.9,0,6.2,0,12.4,0,18.5,0,2.3,0,4.7,0,7,0,3.4,0,6.8,0,10.2,0,1.1,0,2.1,0,3.1,0,4.8,0,8.7.6,12.6-2.3.5-.7,1-1.4,1.5-2.1.7-.8,1.3-1.5,1.9-2.3,4.5-5.6,9.1-11,13.8-16.4,1.1-1.2,2.1-2.4,3.2-3.6,1-1.2,2.1-2.5,3.1-3.7,1.2-1.1,2.3-2.2,3.4-3.4q3.6-4.8,3.1-19.8c0-1.6,0-3.2-.1-4.8,0-3.7-.1-7.4-.2-11.1q0-1.5,0-3h3c6.4-2.5,10.6-6.7,14.5-12.1,4.8-8,4.9-17.7,2.8-26.7-2.9-7.2-8.2-12.2-14.8-16.2-7.1-3.3-17.2-3.5-24.6-1.1-9.3,4.9-14.7,9.9-18,20-2,9-.9,17.9,4.1,25.8,3.6,4.5,8.8,8.5,14.5,9.8q1.2.2,2.4.4c.3,11.3,2.6,25.7-5.2,34.8-2.6,2.2-5,4.2-7.1,7-2.3,3.5-4.7,6.8-7.6,9.9q-10.8,5.6-23.4,5c-2.1,0-4.2,0-6.4,0-5.6,0-11.1,0-16.7-.1-5.8-.1-11.5-.2-17.3-.2-12.4,0-24.9-.2-37.3-.4v-36c4.3,0,8.6,0,13,0,1.8,0,3.5,0,5.3,0,2.6,0,5.2,0,7.8,0,.8,0,1.7,0,2.5,0,2.9,0,5.6,0,8.5-.2,2.7-.9,3.6-1.4,5.2-3.7,2.4-5,4.9-10.2,8.8-14.3,3.5-1.1,5.7-1,9.2-.5,3.9.6,6.6,0,10.2-1.4,9-4.2,14.5-10,17.9-19.4,2-8.5,1.1-16.9-2.9-24.6-5.1-7.8-12.5-12.1-21.4-14.2-7.6-1.1-15.4.6-21.8,4.9q-1.1,1.1-2.2,2.1c-4.9,4.2-8.1,8.9-10,15-.7,7.2-1.3,15.1,2.4,21.4,1.5,2.5,2.7,4.7,3.6,7.6-.7,2.9-1.9,4.7-3.6,7.1q-7.3,3.4-15.6,3c-1.4,0-2.8,0-4.2,0-4.2,0-8.3,0-12.5,0,0-7.3,0-14.5,0-21.8,0-3.7,0-7.4,0-11.1,0-3.6,0-7.2,0-10.9,0-1.4,0-2.8,0-4.2,0-1.3,0-2.7,0-4v-3.8q0-3.3-.2-6.3c-4.4-13-13.4-23.8-24.2-32.1-21.7-14.7-46.9-15.6-70.8-5.9-12.4,6-25.4,17.2-30.2,30.4q-.4,1.3-.8,2.6c-5.9-1.5-11.3-2.3-17.4-2.3-1,0-2,0-3,0-11,0-19.8,1.3-29.8,6.1-15.2,8.1-28.1,20.1-34,36.7-.3.9-.6,1.7-.8,2.6-4.1,11.6-4.2,25-2.5,37.1.2,1,.3,1.9.5,2.9-11,4.4-22,10.5-29.5,19.9-.5.7-1,1.4-1.5,2.1-3.2,4.1-6.1,8.2-8.5,12.8-9.4,21.1-7.2,40.4,0,61.6.2.5.4,1.1.5,1.6-.4.4-.8.8-1.2,1.2l-1.8,1.8c-6.3,6.2-10.9,12.5-14.6,20.5-6.9,16.6-6.2,34.9.6,51.5,6.4,12.3,15.9,24.3,29.3,29.2.9.3,1.8.5,2.7.8-3.4,6.9-6.8,13.8-8.5,21.3-2.6,21.1.4,40.8,13.3,58.1,10.3,12.9,26.2,22.5,42.7,24.4,1.2,0,2.4.1,3.6.2-.2,5.1-.2,9.9,1.2,14.8,5.7,16.5,16.2,30,31.8,38.2,15.5,7,32.9,8.8,49,2.8,3.3-1.3,5.1-2.1,8.6-1.1.8.4,1.6.8,2.4,1.3.8.4,1.5.8,2.2,1.2,9.5,5.1,18.2,8,29,8.3,18.1,0,33.8-4.7,47-17.6,9.8-10.4,14.9-19.5,14.5-33.9,0-1.5,0-3,0-4.5,0-4,0-7.9-.1-11.9-.1-4.9-.2-9.8-.2-14.7,0-3.1,0-6.2,0-9.3,0-5-.2-9.8-.2-14.7h31q0,2.2,3.1,6.4,1.7,2.3,2.9,4.6c-.3,1-.7,2-1,3-2,3.3-3.7,6.3-5,10-1,9.3-.8,17.5,4.7,25.5,5,5.8,10.3,10.9,18.3,11.7,10.6.6,19.5-.6,27.8-7.8,6.7-7.2,8.7-15.1,8.5-24.8-.8-9.5-5.5-15.7-12.6-21.7-7-5.1-14.2-5.6-22.6-4.9-1,.3-2,.7-3,1q0-2.3-2.6-6.5c-.4-.6-.7-1.2-1.1-1.8-2-3.3-4-6.4-6.4-9.4-3.4-2.7-5-2.9-9.3-2.9q-1.2,0-2.4,0c-2.6,0-5.2,0-7.8.1-1.8,0-3.6,0-5.4.1-2.6,0-5.2,0-7.8,0-2.8,0-5.5.1-8.1.2v-36h97q1,3,2.2,4.5c.5.6,1,1.1,1.5,1.7q.8.9,1.6,1.8c.6.7,1.2,1.3,1.8,2,2.3,2.7,4.6,5.4,7,8,1.8,1.6,3.5,3.1,5.2,4.8q6.1,15.6,4.8,33.2h-3c-7.3,3-12.4,7.3-16.2,14.2-3.5,7.6-4.1,15.9-1.9,23.9,3.3,8.5,8.4,14.3,16.6,18.2,7.9,2.9,17.9,3.3,25.7-.2,7.5-4.6,12.8-10.6,15.5-19,2.3-8.4,1.6-16.4-2.8-24.1-4.1-5.5-8.8-11-15.7-12.6-.8-.1-1.5-.3-2.3-.4,0-4.1,0-8.2,0-12.3,0-1.7,0-3.4,0-5,0-2.5,0-4.9,0-7.4q0-1.2,0-2.3c0-5.6-.2-8.7-4-13-3.2-3.5-6.4-6.9-9.4-10.6-3.6-4.5-7.3-9-11.1-13.3-.5-.5-1-1.1-1.5-1.6-.9-1-1.8-2-2.7-3-4.6-4.3-8.6-4.7-14.6-4.7-1,0-1.9,0-2.8,0-3.1,0-6.3,0-9.4,0-2.2,0-4.5,0-6.7,0-5.9,0-11.7,0-17.6,0-6.1,0-12.1,0-18.2,0-10,0-20,0-30.1,0-3.1,0-6.2,0-9.2,0v-27c12.2-.1,24.3-.2,36.5-.2s12.4,0,18.6,0c6.1,0,12.2-.1,18.2,0,2.3,0,4.6,0,7,0,7.1-.1,14.3-.4,21.4.7,5,1.3,7.6,4.6,10.5,8.7q1.8,2.9,4.1,5.8,1.1,1.3,2.1,2.5c3.2,4,6.6,7.8,10.1,11.6,3.6,3.9,7.1,7.9,10.4,12.1.7.9,1.4,1.8,2,2.7,3.2,3.5,5.8,5.1,10.6,5.7,1.3,0,2.7,0,4,0,2.2,0,4.4.1,6.6.1,1.5,0,3,0,4.5,0,3.5,0,7,.2,10.5.2,1,0,1.9,0,2.9,0,3.5,7.4,7.2,13,14.2,17.4,7.9,3.7,17.7,4.2,26.1,1.6,7.4-3.4,13.5-9.6,16.9-17,2.2-8.4,1.8-17.8-1.8-25.8-3.8-7.3-10.1-11.9-17.7-14.6ZM471.6,163.6c3.5-3.8,6.4-5.5,11.6-5.9q5.4,1.4,9.8,5.2c3.1,4,3.4,7,3,12-2,3.9-4.1,7.1-8,9-4.3,1.2-7.2,1.3-11.3-.5-3.3-2-5.3-3.7-6.6-7.4-.7-4.7-.5-8,1.6-12.4ZM394,94c-2.3-2.6-3.8-4.6-4.3-8.1,0-4.3.2-7.6,2.9-10.9,7.1-6,13.7-6.5,20.4,0,3.5,4.3,3.4,7.7,3,13-2.5,3.7-4.6,7.3-9.1,8.7-5.1.8-8.6.5-12.9-2.7ZM322,76c4.4-4.9,7.3-5.5,13.8-5.3q5.2,1.8,8.9,6.2c2.2,3.6,2,7.1,1.3,11.1-1.6,3.8-3.4,5.8-7,8-4.4,1.2-7.9,1.3-12.3,0-3.4-2.5-5.2-5-6.7-9-.4-4.2-.5-7.5,2-11ZM258.5,69.9c0,1.5,0,3-.1,4.5,0,3.4-.1,6.8-.2,10.2-.2,8-.3,16.1-.4,24.1,0,3,0,6-.1,8.9,0,.8,0,1.5,0,2.2-.2,13-.4,26.1-.6,39.2-.8-.2-1.7-.4-2.5-.6-1.1-.3-2.2-.6-3.3-.8-7.6-2-14.8-2.2-22.6-1.2-5.6,1.2-13.7,3.8-17,8.7q-1.1,3.2.3,9.1,3,2,4.9,2.3c.7,0,1.4,0,2.1,0q2.1,0,4-.2c3.4-2.2,6.4-3.3,10.2-4.5,5.9-1.1,12.5-.5,17.8,2.5,3.9,2.7,5.7,3.7,6.7,8.3,0,1.3,0,2.6,0,3.8,0,2.2,0,4.5,0,6.7,0,1.6,0,3.2,0,4.8,0,4.2,0,8.3-.1,12.5,0,4.3-.1,8.6-.1,13,0,9.3-.2,18.6-.3,27.9-1.8-.4-3.6-.7-5.4-1.1-.8-.1-1.5-.3-2.2-.4-6.2-1.3-11.9-1.9-18.3-1.2-6.2,1.3-14.2,3.4-18.1,8.7-.6,2.7-.4,5.3,0,8q1,2,3,3c3.8.5,6.6.6,10.1-.9,2.3-1.1,4.5-2.2,6.9-3.1,8.5-1,15.5.4,22.5,5.5,2.1,2.1,2.4,4.2,2.5,7.1q0,1.1,0,2.2c0,2.5,0,4.9,0,7.4,0,1.8,0,3.6,0,5.4,0,4.9,0,9.8,0,14.7,0,5.2,0,10.5,0,15.7,0,8.8,0,17.5,0,26.3,0,10.2,0,20.4,0,30.6,0,9.9,0,19.8,0,29.6,0,4.2,0,8.4,0,12.6,0,5,0,10,0,15,0,1.8,0,3.7,0,5.6,0,6.2,0,12.3-.8,18.4-4.2,10.6-12.9,18.1-23,23-10.8,4.4-22,6.1-33.1,1.8-1.1-.5-2.2-.9-3.2-1.4-1.9-.8-3.8-1.6-5.7-2.4,2.7-3.2,5-6.5,7.1-10.1,6.2-11.7,7.9-23.9,4.1-36.7-.3-1-.7-1.9-1-2.8-1-3.1-1.7-5-4.1-7.2-2.8-1.6-4.8-1.5-8-1.2q-3,2-4.4,4.4t.2,6c.8,1.9,1.5,3.7,2.3,5.6,2.4,7.4,1.7,15.3-1.5,22.3-5.4,9.1-14.7,14.6-24.5,17.7-12.3,3.3-23.8,2.5-35.1-3.8-.6-.4-1.2-.8-1.9-1.1-2.1-1.3-4-2.6-6-4.1-9.6-9-14.5-19.9-15-32.9,1.9-1,3.8-1.9,5.8-2.7,14.1-5.5,28.5-11.7,35.2-26.3,1.1-4.1,1.5-7.5,0-11.6q-2.9-2-10.1-1.4-2,1-2.9,2.6c-1.2,2.6-2.5,5.1-3.8,7.6-6.8,9.4-22.2,14.4-33.3,16.8-11.4.5-22.6-4.5-31.7-11.2-12.3-10.1-18-23.5-19.6-39.1-.4-11.5,3.7-23.7,11-32.5,1.1-1.4,2.2-2.8,3.2-4.2,1-3.5,1.4-5.6.4-9q-1.4-2-4.3-3.2c-7.1-2.1-13.5-4.6-19.7-8.8-10.5-8.3-16.7-19.7-18.5-32.9-.2-14.1,3.5-25.8,13.1-36.3,8.1-7.6,16.6-12,27.9-11.7,6.9.7,13.3,3.8,17.8,9.1,1.7,2.1,3.2,4.1,5.2,5.9,3.6,1,6.6.7,10-1q1.5-2.9,1-10c-2.5-5.1-7.7-9-12.2-12.2-11.9-7.4-24.7-8.8-38.3-5.8-1.2.3-2.3.7-3.4,1-1.6-2.5-2.9-4.8-4-7.7-4.1-15.7-2.2-29.4,5.7-43.5,7.1-11.4,17.4-18.3,30.2-21.9q2,2.8,3.1,5.2c.3.6.6,1.2.9,1.8h2c1.6,1.4,3.3,2.7,5,4,9,5.2,19.9,5.5,29.9,3,3.1-1,4.5-1.3,6.1-4,.4-3.5.6-6.8-1-10-2.4-1.5-4.2-2.2-7-1.6-2.3.6-4.6,1.2-7,1.6-6.9,0-11.3-1.6-16.5-6.2-5.5-6.1-7.5-14.7-7.9-22.8-.3-13.5,2-27.1,11.6-37.3.6-.6,1.2-1.2,1.8-1.8,3.9-3.9,7.8-7.6,12.5-10.6,13.1-7,26.6-8.2,40.8-4.2,1.7.5,3.3.9,5,1.3,5.6,1.3,10.6,3,15.3,6.3q1.2,1.1,2.4,2.1c.9.8,1.7,1.5,2.6,2.2,7.6,8.6,8.6,18.6,8.4,29.7-.2,3.6-.7,6.9,1.4,10,2.3,1.5,4,1.9,6.6,2,3-.8,4.5-1.2,6.1-3.8,4-9.6,2.2-22.9-.8-32.5-4.8-12.7-11.7-20.6-23.6-26.8-.6-.3-1.1-.6-1.7-.8q1.5-6.6,6-12c12.1-12.8,26.8-17.7,44.1-17.2,12.4.8,24.8,7.5,33.2,16.5,7.5,9.3,10.6,16.6,10.2,28.7ZM321,422c6-7.3,13-9.2,21-4,2.4,2.7,3.8,4.7,4.3,8.3,0,4.4,0,7.1-2.9,10.6-3.8,3.3-7.5,5.1-12.6,4.9-5.5-1.7-8.1-4.8-10.8-9.9-.3-3.8-.2-6.4,1-10ZM403.2,414.8q5.4,1.4,9.8,5.2c3.1,4,3.4,7,3,12-2.1,4.2-4.3,6.6-8.4,8.9-3.9,1.2-5.7,1.3-9.6.1-4.1-1.9-6.3-3.8-8-8-.7-4.7-.5-8.1,1.6-12.4,3.5-3.8,6.4-5.5,11.6-5.9ZM495,346c-2.5,4.2-5.3,6.4-10,8-4.9,0-7.1-.5-11.4-3-2.9-3.3-3.9-5.4-4.6-9.7,0-4.2,1.3-7.2,4-10.3,3.8-3,6.9-4,11.7-4,4.9,1.5,7.3,3.5,10.2,7.8,1.4,4.1,1.4,7.1.1,11.2Z"/>
    <path class="st5" d="M491.7,311.7c-7.9-1.9-16.5-1.5-23.7,2.3-5.6,3.9-11.1,8.8-12.6,15.7-.1.8-.3,1.5-.4,2.3-3.1,0-6.2,0-9.3,0q-1.9,0-3.8,0c-3.7,0-7.2,0-10.8-.3-4.4-1-6.1-3-8.7-6.6q-1.4-2.1-2.8-3.7c-5-5.2-9.7-10.5-14.2-16-3.5-4.4-7.2-8.7-11-12.9-.8-.8-1.6-1.7-2.4-2.5-.5-.6-1.1-1.2-1.6-1.8-4.6-4.6-7.9-6-14.4-6.1-1,0-2,0-3,0-3.4,0-6.8,0-10.2,0-2.4,0-4.9,0-7.3,0-6.4,0-12.7,0-19.1.1-7.9.1-15.8.2-23.7.2-5,0-10,0-14.9,0-8.1,0-15.9.2-23.8.2v-54c11.9,0,23.9,0,35.8,0,8.5,0,17,0,25.6,0,5.9,0,11.8,0,17.6,0,2.5,0,5,0,7.5,0,3.6,0,7.2,0,10.8,0h3.3c1.1,0,2.1,0,3.1,0q1.4,0,2.8,0c.8,0,1.7,0,2.5,0,3.3-.4,4.9-2,7-4.4,3.6-4.6,7.3-9,11.2-13.3,3.2-3.4,6.3-6.7,9.2-10.3q1.1-1.4,2.2-2.7c1.5-1.8,3-3.7,4.5-5.5,2.2-3.5,4.2-6.8,7.1-9.7q14.3-4.4,29.9-2.3c3.5,7.4,7.2,13,14.2,17.4,8.5,4,18.4,4.1,27.2,1,7.3-3.4,12.3-9.1,15.7-16.4,2.4-8.1,2.4-17.8-1-25.6-4.2-7-10.5-12.9-18.5-15-7.9-1.2-16.5-1.7-23.5,2.6-5.5,4-11,8.8-12.6,15.7-.1.8-.3,1.5-.4,2.3-3.7,0-7.4-.1-11.1-.2-1.5,0-3,0-4.6,0-2.2,0-4.5,0-6.7,0-.7,0-1.4,0-2.1,0q-2,0-4,0c-4.5.4-7,1.9-10.1,5-3,3.7-6.1,7.2-9.3,10.7-4,4.3-7.9,8.6-11.5,13.2-3.3,4.1-6.8,8.1-10.4,11.9-1.7,1.8-3.4,3.7-5.1,5.6-.7,1.4-1.3,2.7-2,4h-104v-29c12.4,0,24.8.2,37.1.2,6.3,0,12.6,0,18.9,0,6.2,0,12.4,0,18.5,0,2.3,0,4.7,0,7,0,3.4,0,6.8,0,10.2,0,1.1,0,2.1,0,3.1,0,4.8,0,8.7.6,12.6-2.3.5-.7,1-1.4,1.5-2.1.7-.8,1.3-1.5,1.9-2.3,4.5-5.6,9.1-11,13.8-16.4,1.1-1.2,2.1-2.4,3.2-3.6,1-1.2,2.1-2.5,3.1-3.7,1.2-1.1,2.3-2.2,3.4-3.4q3.6-4.8,3.1-19.8c0-1.6,0-3.2-.1-4.8,0-3.7-.1-7.4-.2-11.1q0-1.5,0-3h3c6.4-2.5,10.6-6.7,14.5-12.1,4.8-8,4.9-17.7,2.8-26.7-2.9-7.2-8.2-12.2-14.8-16.2-7.1-3.3-17.2-3.5-24.6-1.1-9.3,4.9-14.7,9.9-18,20-2,9-.9,17.9,4.1,25.8,3.6,4.5,8.8,8.5,14.5,9.8q1.2.2,2.4.4c.3,11.3,2.6,25.7-5.2,34.8-2.6,2.2-5,4.2-7.1,7-2.3,3.5-4.7,6.8-7.6,9.9q-10.8,5.6-23.4,5c-2.1,0-4.2,0-6.4,0-5.6,0-11.1,0-16.7-.1-5.8-.1-11.5-.2-17.3-.2-12.4,0-24.9-.2-37.3-.4v-36c4.3,0,8.6,0,13,0,1.8,0,3.5,0,5.3,0,2.6,0,5.2,0,7.8,0,.8,0,1.7,0,2.5,0,2.9,0,5.6,0,8.5-.2,2.7-.9,3.6-1.4,5.2-3.7,2.4-5,4.9-10.2,8.8-14.3,3.5-1.1,5.7-1,9.2-.5,3.9.6,6.6,0,10.2-1.4,9-4.2,14.5-10,17.9-19.4,2-8.5,1.1-16.9-2.9-24.6-5.1-7.8-12.5-12.1-21.4-14.2-7.6-1.1-15.4.6-21.8,4.9q-1.1,1.1-2.2,2.1c-4.9,4.2-8.1,8.9-10,15-.7,7.2-1.3,15.1,2.4,21.4,1.5,2.5,2.7,4.7,3.6,7.6-.7,2.9-1.9,4.7-3.6,7.1q-7.3,3.4-15.6,3c-1.4,0-2.8,0-4.2,0-4.2,0-8.3,0-12.5,0,0-7.3,0-14.5,0-21.8,0-3.7,0-7.4,0-11.1,0-3.6,0-7.2,0-10.9,0-1.4,0-2.8,0-4.2,0-1.3,0-2.7,0-4v-3.8q0-3.3-.2-6.3c-4.4-13-13.4-23.8-24.2-32.1-21.7-14.7-46.9-15.6-70.8-5.9-12.4,6-25.4,17.2-30.2,30.4q-.4,1.3-.8,2.6c-5.9-1.5-11.3-2.3-17.4-2.3-1,0-2,0-3,0-11,0-19.8,1.3-29.8,6.1-15.2,8.1-28.1,20.1-34,36.7-.3.9-.6,1.7-.8,2.6-4.1,11.6-4.2,25-2.5,37.1.2,1,.3,1.9.5,2.9-11,4.4-22,10.5-29.5,19.9-.5.7-1,1.4-1.5,2.1-3.2,4.1-6.1,8.2-8.5,12.8-9.4,21.1-7.2,40.4,0,61.6.2.5.4,1.1.5,1.6-.4.4-.8.8-1.2,1.2l-1.8,1.8c-6.3,6.2-10.9,12.5-14.6,20.5-6.9,16.6-6.2,34.9.6,51.5,6.4,12.3,15.9,24.3,29.3,29.2.9.3,1.8.5,2.7.8-3.4,6.9-6.8,13.8-8.5,21.3-2.6,21.1.4,40.8,13.3,58.1,10.3,12.9,26.2,22.5,42.7,24.4,1.2,0,2.4.1,3.6.2-.2,5.1-.2,9.9,1.2,14.8,5.7,16.5,16.2,30,31.8,38.2,15.5,7,32.9,8.8,49,2.8,3.3-1.3,5.1-2.1,8.6-1.1.8.4,1.6.8,2.4,1.3.8.4,1.5.8,2.2,1.2,9.5,5.1,18.2,8,29,8.3,18.1,0,33.8-4.7,47-17.6,9.8-10.4,14.9-19.5,14.5-33.9,0-1.5,0-3,0-4.5,0-4,0-7.9-.1-11.9-.1-4.9-.2-9.8-.2-14.7,0-3.1,0-6.2,0-9.3,0-5-.2-9.8-.2-14.7h31q0,2.2,3.1,6.4,1.7,2.3,2.9,4.6c-.3,1-.7,2-1,3-2,3.3-3.7,6.3-5,10-1,9.3-.8,17.5,4.7,25.5,5,5.8,10.3,10.9,18.3,11.7,10.6.6,19.5-.6,27.8-7.8,6.7-7.2,8.7-15.1,8.5-24.8-.8-9.5-5.5-15.7-12.6-21.7-7-5.1-14.2-5.6-22.6-4.9-1,.3-2,.7-3,1q0-2.3-2.6-6.5c-.4-.6-.7-1.2-1.1-1.8-2-3.3-4-6.4-6.4-9.4-3.4-2.7-5-2.9-9.3-2.9q-1.2,0-2.4,0c-2.6,0-5.2,0-7.8.1-1.8,0-3.6,0-5.4.1-2.6,0-5.2,0-7.8,0-2.8,0-5.5.1-8.1.2v-36h97q1,3,2.2,4.5c.5.6,1,1.1,1.5,1.7q.8.9,1.6,1.8c.6.7,1.2,1.3,1.8,2,2.3,2.7,4.6,5.4,7,8,1.8,1.6,3.5,3.1,5.2,4.8q6.1,15.6,4.8,33.2h-3c-7.3,3-12.4,7.3-16.2,14.2-3.5,7.6-4.1,15.9-1.9,23.9,3.3,8.5,8.4,14.3,16.6,18.2,7.9,2.9,17.9,3.3,25.7-.2,7.5-4.6,12.8-10.6,15.5-19,2.3-8.4,1.6-16.4-2.8-24.1-4.1-5.5-8.8-11-15.7-12.6-.8-.1-1.5-.3-2.3-.4,0-4.1,0-8.2,0-12.3,0-1.7,0-3.4,0-5,0-2.5,0-4.9,0-7.4q0-1.2,0-2.3c0-5.6-.2-8.7-4-13-3.2-3.5-6.4-6.9-9.4-10.6-3.6-4.5-7.3-9-11.1-13.3-.5-.5-1-1.1-1.5-1.6-.9-1-1.8-2-2.7-3-4.6-4.3-8.6-4.7-14.6-4.7-1,0-1.9,0-2.8,0-3.1,0-6.3,0-9.4,0-2.2,0-4.5,0-6.7,0-5.9,0-11.7,0-17.6,0-6.1,0-12.1,0-18.2,0-10,0-20,0-30.1,0-3.1,0-6.2,0-9.2,0v-27c12.2-.1,24.3-.2,36.5-.2s12.4,0,18.6,0c6.1,0,12.2-.1,18.2,0,2.3,0,4.6,0,7,0,7.1-.1,14.3-.4,21.4.7,5,1.3,7.6,4.6,10.5,8.7q1.8,2.9,4.1,5.8,1.1,1.3,2.1,2.5c3.2,4,6.6,7.8,10.1,11.6,3.6,3.9,7.1,7.9,10.4,12.1.7.9,1.4,1.8,2,2.7,3.2,3.5,5.8,5.1,10.6,5.7,1.3,0,2.7,0,4,0,2.2,0,4.4.1,6.6.1,1.5,0,3,0,4.5,0,3.5,0,7,.2,10.5.2,1,0,1.9,0,2.9,0,3.5,7.4,7.2,13,14.2,17.4,7.9,3.7,17.7,4.2,26.1,1.6,7.4-3.4,13.5-9.6,16.9-17,2.2-8.4,1.8-17.8-1.8-25.8-3.8-7.3-10.1-11.9-17.7-14.6ZM471.6,163.6c3.5-3.8,6.4-5.5,11.6-5.9q5.4,1.4,9.8,5.2c3.1,4,3.4,7,3,12-2,3.9-4.1,7.1-8,9-4.3,1.2-7.2,1.3-11.3-.5-3.3-2-5.3-3.7-6.6-7.4-.7-4.7-.5-8,1.6-12.4ZM394,94c-2.3-2.6-3.8-4.6-4.3-8.1,0-4.3.2-7.6,2.9-10.9,7.1-6,13.7-6.5,20.4,0,3.5,4.3,3.4,7.7,3,13-2.5,3.7-4.6,7.3-9.1,8.7-5.1.8-8.6.5-12.9-2.7ZM322,76c4.4-4.9,7.3-5.5,13.8-5.3q5.2,1.8,8.9,6.2c2.2,3.6,2,7.1,1.3,11.1-1.6,3.8-3.4,5.8-7,8-4.4,1.2-7.9,1.3-12.3,0-3.4-2.5-5.2-5-6.7-9-.4-4.2-.5-7.5,2-11ZM258.5,69.9c0,1.5,0,3-.1,4.5,0,3.4-.1,6.8-.2,10.2-.2,8-.3,16.1-.4,24.1,0,3,0,6-.1,8.9,0,.8,0,1.5,0,2.2-.2,13-.4,26.1-.6,39.2-.8-.2-1.7-.4-2.5-.6-1.1-.3-2.2-.6-3.3-.8-7.6-2-14.8-2.2-22.6-1.2-5.6,1.2-13.7,3.8-17,8.7q-1.1,3.2.3,9.1,3,2,4.9,2.3c.7,0,1.4,0,2.1,0q2.1,0,4-.2c3.4-2.2,6.4-3.3,10.2-4.5,5.9-1.1,12.5-.5,17.8,2.5,3.9,2.7,5.7,3.7,6.7,8.3,0,1.3,0,2.6,0,3.8,0,2.2,0,4.5,0,6.7,0,1.6,0,3.2,0,4.8,0,4.2,0,8.3-.1,12.5,0,4.3-.1,8.6-.1,13,0,9.3-.2,18.6-.3,27.9-1.8-.4-3.6-.7-5.4-1.1-.8-.1-1.5-.3-2.2-.4-6.2-1.3-11.9-1.9-18.3-1.2-6.2,1.3-14.2,3.4-18.1,8.7-.6,2.7-.4,5.3,0,8q1,2,3,3c3.8.5,6.6.6,10.1-.9,2.3-1.1,4.5-2.2,6.9-3.1,8.5-1,15.5.4,22.5,5.5,2.1,2.1,2.4,4.2,2.5,7.1q0,1.1,0,2.2c0,2.5,0,4.9,0,7.4,0,1.8,0,3.6,0,5.4,0,4.9,0,9.8,0,14.7,0,5.2,0,10.5,0,15.7,0,8.8,0,17.5,0,26.3,0,10.2,0,20.4,0,30.6,0,9.9,0,19.8,0,29.6,0,4.2,0,8.4,0,12.6,0,5,0,10,0,15,0,1.8,0,3.7,0,5.6,0,6.2,0,12.3-.8,18.4-4.2,10.6-12.9,18.1-23,23-10.8,4.4-22,6.1-33.1,1.8-1.1-.5-2.2-.9-3.2-1.4-1.9-.8-3.8-1.6-5.7-2.4,2.7-3.2,5-6.5,7.1-10.1,6.2-11.7,7.9-23.9,4.1-36.7-.3-1-.7-1.9-1-2.8-1-3.1-1.7-5-4.1-7.2-2.8-1.6-4.8-1.5-8-1.2q-3,2-4.4,4.4t.2,6c.8,1.9,1.5,3.7,2.3,5.6,2.4,7.4,1.7,15.3-1.5,22.3-5.4,9.1-14.7,14.6-24.5,17.7-12.3,3.3-23.8,2.5-35.1-3.8-.6-.4-1.2-.8-1.9-1.1-2.1-1.3-4-2.6-6-4.1-9.6-9-14.5-19.9-15-32.9,1.9-1,3.8-1.9,5.8-2.7,14.1-5.5,28.5-11.7,35.2-26.3,1.1-4.1,1.5-7.5,0-11.6q-2.9-2-10.1-1.4-2,1-2.9,2.6c-1.2,2.6-2.5,5.1-3.8,7.6-6.8,9.4-22.2,14.4-33.3,16.8-11.4.5-22.6-4.5-31.7-11.2-12.3-10.1-18-23.5-19.6-39.1-.4-11.5,3.7-23.7,11-32.5,1.1-1.4,2.2-2.8,3.2-4.2,1-3.5,1.4-5.6.4-9q-1.4-2-4.3-3.2c-7.1-2.1-13.5-4.6-19.7-8.8-10.5-8.3-16.7-19.7-18.5-32.9-.2-14.1,3.5-25.8,13.1-36.3,8.1-7.6,16.6-12,27.9-11.7,6.9.7,13.3,3.8,17.8,9.1,1.7,2.1,3.2,4.1,5.2,5.9,3.6,1,6.6.7,10-1q1.5-2.9,1-10c-2.5-5.1-7.7-9-12.2-12.2-11.9-7.4-24.7-8.8-38.3-5.8-1.2.3-2.3.7-3.4,1-1.6-2.5-2.9-4.8-4-7.7-4.1-15.7-2.2-29.4,5.7-43.5,7.1-11.4,17.4-18.3,30.2-21.9q2,2.8,3.1,5.2c.3.6.6,1.2.9,1.8h2c1.6,1.4,3.3,2.7,5,4,9,5.2,19.9,5.5,29.9,3,3.1-1,4.5-1.3,6.1-4,.4-3.5.6-6.8-1-10-2.4-1.5-4.2-2.2-7-1.6-2.3.6-4.6,1.2-7,1.6-6.9,0-11.3-1.6-16.5-6.2-5.5-6.1-7.5-14.7-7.9-22.8-.3-13.5,2-27.1,11.6-37.3.6-.6,1.2-1.2,1.8-1.8,3.9-3.9,7.8-7.6,12.5-10.6,13.1-7,26.6-8.2,40.8-4.2,1.7.5,3.3.9,5,1.3,5.6,1.3,10.6,3,15.3,6.3q1.2,1.1,2.4,2.1c.9.8,1.7,1.5,2.6,2.2,7.6,8.6,8.6,18.6,8.4,29.7-.2,3.6-.7,6.9,1.4,10,2.3,1.5,4,1.9,6.6,2,3-.8,4.5-1.2,6.1-3.8,4-9.6,2.2-22.9-.8-32.5-4.8-12.7-11.7-20.6-23.6-26.8-.6-.3-1.1-.6-1.7-.8q1.5-6.6,6-12c12.1-12.8,26.8-17.7,44.1-17.2,12.4.8,24.8,7.5,33.2,16.5,7.5,9.3,10.6,16.6,10.2,28.7ZM321,422c6-7.3,13-9.2,21-4,2.4,2.7,3.8,4.7,4.3,8.3,0,4.4,0,7.1-2.9,10.6-3.8,3.3-7.5,5.1-12.6,4.9-5.5-1.7-8.1-4.8-10.8-9.9-.3-3.8-.2-6.4,1-10ZM403.2,414.8q5.4,1.4,9.8,5.2c3.1,4,3.4,7,3,12-2.1,4.2-4.3,6.6-8.4,8.9-3.9,1.2-5.7,1.3-9.6.1-4.1-1.9-6.3-3.8-8-8-.7-4.7-.5-8.1,1.6-12.4,3.5-3.8,6.4-5.5,11.6-5.9ZM495,346c-2.5,4.2-5.3,6.4-10,8-4.9,0-7.1-.5-11.4-3-2.9-3.3-3.9-5.4-4.6-9.7,0-4.2,1.3-7.2,4-10.3,3.8-3,6.9-4,11.7-4,4.9,1.5,7.3,3.5,10.2,7.8,1.4,4.1,1.4,7.1.1,11.2Z"/>
  </g>
  <path class="st2" d="M258.5,69.9c0,1.5,0,3-.1,4.5,0,3.4-.1,6.8-.2,10.2-.2,8-.3,16.1-.4,24.1,0,3,0,6-.1,8.9,0,.8,0,1.5,0,2.2-.2,13-.4,26.1-.6,39.2-.8-.2-1.7-.4-2.5-.6-1.1-.3-2.2-.6-3.3-.8-7.6-2-14.8-2.2-22.6-1.2-5.6,1.2-13.7,3.8-17,8.7q-1.1,3.2.3,9.1,3,2,4.9,2.3c.7,0,1.4,0,2.1,0q2.1,0,4-.2c3.4-2.2,6.4-3.3,10.2-4.5,5.9-1.1,12.5-.5,17.8,2.5,3.9,2.7,5.7,3.7,6.7,8.3,0,1.3,0,2.6,0,3.8,0,2.2,0,4.5,0,6.7,0,1.6,0,3.2,0,4.8,0,4.2,0,8.3-.1,12.5,0,4.3-.1,8.6-.1,13,0,9.3-.2,18.6-.3,27.9-1.8-.4-3.6-.7-5.4-1.1-.8-.1-1.5-.3-2.2-.4-6.2-1.3-11.9-1.9-18.3-1.2-6.2,1.3-14.2,3.4-18.1,8.7-.6,2.7-.4,5.3,0,8q1,2,3,3c3.8.5,6.6.6,10.1-.9,2.3-1.1,4.5-2.2,6.9-3.1,8.5-1,15.5.4,22.5,5.5,2.1,2.1,2.4,4.2,2.5,7.1q0,1.1,0,2.2c0,2.5,0,4.9,0,7.4,0,1.8,0,3.6,0,5.4,0,4.9,0,9.8,0,14.7,0,5.2,0,10.5,0,15.7,0,8.8,0,17.5,0,26.3,0,10.2,0,20.4,0,30.6,0,9.9,0,19.8,0,29.6,0,4.2,0,8.4,0,12.6,0,5,0,10,0,15,0,1.8,0,3.7,0,5.6,0,6.2,0,12.3-.8,18.4-4.2,10.6-12.9,18.1-23,23-10.8,4.4-22,6.1-33.1,1.8-1.1-.5-2.2-.9-3.2-1.4-1.9-.8-3.8-1.6-5.7-2.4,2.7-3.2,5-6.5,7.1-10.1,6.2-11.7,7.9-23.9,4.1-36.7-.3-1-.7-1.9-1-2.8-1-3.1-1.7-5-4.1-7.2-2.8-1.6-4.8-1.5-8-1.2q-3,2-4.4,4.4t.2,6c.8,1.9,1.5,3.7,2.3,5.6,2.4,7.4,1.7,15.3-1.5,22.3-5.4,9.1-14.7,14.6-24.5,17.7-12.3,3.3-23.8,2.5-35.1-3.8-.6-.4-1.2-.8-1.9-1.1-2.1-1.3-4-2.6-6-4.1-9.6-9-14.5-19.9-15-32.9,1.9-1,3.8-1.9,5.8-2.7,14.1-5.5,28.5-11.7,35.2-26.3,1.1-4.1,1.5-7.5,0-11.6q-2.9-2-10.1-1.4-2,1-2.9,2.6c-1.2,2.6-2.5,5.1-3.8,7.6-6.8,9.4-22.2,14.4-33.3,16.8-11.4.5-22.6-4.5-31.7-11.2-12.3-10.1-18-23.5-19.6-39.1-.4-11.5,3.7-23.7,11-32.5,1.1-1.4,2.2-2.8,3.2-4.2,1-3.5,1.4-5.6.4-9q-1.4-2-4.3-3.2c-7.1-2.1-13.5-4.6-19.7-8.8-10.5-8.3-16.7-19.7-18.5-32.9-.2-14.1,3.5-25.8,13.1-36.3,8.1-7.6,16.6-12,27.9-11.7,6.9.7,13.3,3.8,17.8,9.1,1.7,2.1,3.2,4.1,5.2,5.9,3.6,1,6.6.7,10-1q1.5-2.9,1-10c-2.5-5.1-7.7-9-12.2-12.2-11.9-7.4-24.7-8.8-38.3-5.8-1.2.3-2.3.7-3.4,1-1.6-2.5-2.9-4.8-4-7.7-4.1-15.7-2.2-29.4,5.7-43.5,7.1-11.4,17.4-18.3,30.2-21.9q2,2.8,3.1,5.2c.3.6.6,1.2.9,1.8h2c1.6,1.4,3.3,2.7,5,4,9,5.2,19.9,5.5,29.9,3,3.1-1,4.5-1.3,6.1-4,.4-3.5.6-6.8-1-10-2.4-1.5-4.2-2.2-7-1.6-2.3.6-4.6,1.2-7,1.6-6.9,0-11.3-1.6-16.5-6.2-5.5-6.1-7.5-14.7-7.9-22.8-.3-13.5,2-27.1,11.6-37.3.6-.6,1.2-1.2,1.8-1.8,3.9-3.9,7.8-7.6,12.5-10.6,13.1-7,26.6-8.2,40.8-4.2,1.7.5,3.3.9,5,1.3,5.6,1.3,10.6,3,15.3,6.3q1.2,1.1,2.4,2.1c.9.8,1.7,1.5,2.6,2.2,7.6,8.6,8.6,18.6,8.4,29.7-.2,3.6-.7,6.9,1.4,10,2.3,1.5,4,1.9,6.6,2,3-.8,4.5-1.2,6.1-3.8,4-9.6,2.2-22.9-.8-32.5-4.8-12.7-11.7-20.6-23.6-26.8-.6-.3-1.1-.6-1.7-.8q1.5-6.6,6-12c12.1-12.8,26.8-17.7,44.1-17.2,12.4.8,24.8,7.5,33.2,16.5,7.5,9.3,10.6,16.6,10.2,28.7Z"/>
  <path class="st0" d="M172,290c3.7,2.8,4.6,5.3,5.4,9.8,1.9,8.5,5.4,14.2,12.6,19.2,5.6,3,10.8,3.6,17,4,3.5.3,5.4.6,8.4,2.6,2,3,2.1,4.9,2.3,8.4-1,3.2-2.8,4.3-5.6,6-12,1.8-23.2-.6-33.3-7.2-10-7.5-16.5-17.3-18.7-29.8-.5-4.4-.8-7.7,1.5-11.6,3.4-2,6.7-2.5,10.5-1.4Z"/>
  <g>
    <path class="st1" d="M168.4,197.2c4.9,3.7,9.8,8.2,12.6,13.8.5,4.4.5,6.3-2.1,10q-2.9,2-6.4,2.1c-4.2-1.3-5.6-2.9-8.5-6.1-6.3-6.1-12.9-10-22-10-4.5.6-8.6,1.7-12.7,3.7-3.8,1.5-5.5,1.7-9.3.3-2.8-2.6-3.9-4.2-4.6-8,.8-4.2,2.1-5.4,5.6-8,15.3-7.5,32.9-7.3,47.4,2.2Z"/>
    <path class="st4" d="M168.4,197.2c4.9,3.7,9.8,8.2,12.6,13.8.5,4.4.5,6.3-2.1,10q-2.9,2-6.4,2.1c-4.2-1.3-5.6-2.9-8.5-6.1-6.3-6.1-12.9-10-22-10-4.5.6-8.6,1.7-12.7,3.7-3.8,1.5-5.5,1.7-9.3.3-2.8-2.6-3.9-4.2-4.6-8,.8-4.2,2.1-5.4,5.6-8,15.3-7.5,32.9-7.3,47.4,2.2Z"/>
  </g>
  <g>
    <path class="st1" d="M103,290.4c3.7.7,5.4,1.8,8,4.6,1.2,3.1,1,6,.9,9.2,0,8.5,2.8,14.5,8.6,20.7,3.8,3.1,8.1,4.9,12.7,6.7,3,1.5,4.2,2.5,5.9,5.4.5,3.8.5,6.1-1.4,9.4-3.9,2.4-7.2,2.5-11.6,1.6-11.8-4.4-21.3-11.3-27-22.8-.3-.7-.7-1.5-1-2.2-.3-.6-.6-1.3-1-1.9-2.2-5.3-2.4-10.7-2.5-16.3,0-.8,0-1.6,0-2.4,0-4.3.2-5.9,2.9-9.4q2.7-2,5.7-2.6Z"/>
    <path class="st3" d="M103,290.4c3.7.7,5.4,1.8,8,4.6,1.2,3.1,1,6,.9,9.2,0,8.5,2.8,14.5,8.6,20.7,3.8,3.1,8.1,4.9,12.7,6.7,3,1.5,4.2,2.5,5.9,5.4.5,3.8.5,6.1-1.4,9.4-3.9,2.4-7.2,2.5-11.6,1.6-11.8-4.4-21.3-11.3-27-22.8-.3-.7-.7-1.5-1-2.2-.3-.6-.6-1.3-1-1.9-2.2-5.3-2.4-10.7-2.5-16.3,0-.8,0-1.6,0-2.4,0-4.3.2-5.9,2.9-9.4q2.7-2,5.7-2.6Z"/>
  </g>
</svg>