<?xml version="1.0" encoding="UTF-8"?>
<svg id="Layer_1" xmlns="http://www.w3.org/2000/svg" version="1.1" xmlns:xlink="http://www.w3.org/1999/xlink" viewBox="0 0 234.9 234.4">
  <!-- Generator: Adobe Illustrator 29.0.1, SVG Export Plug-In . SVG Version: 2.1.0 Build 192)  -->
  <defs>
    <style>
      .st0 {
        fill: url(#linear-gradient2);
      }

      .st1 {
        fill: url(#linear-gradient1);
      }

      .st2 {
        fill: #fed86d;
      }

      .st3 {
        fill: url(#linear-gradient4);
      }

      .st4 {
        opacity: .2;
      }

      .st5 {
        fill: url(#linear-gradient5);
      }

      .st6 {
        fill: url(#linear-gradient3);
      }

      .st7 {
        fill: url(#linear-gradient6);
      }

      .st8 {
        fill: url(#linear-gradient);
      }
    </style>
    <linearGradient id="linear-gradient" x1="38.4" y1="29.6" x2="196.6" y2="204.3" gradientUnits="userSpaceOnUse">
      <stop offset="0" stop-color="#ffdb6e"/>
      <stop offset="1" stop-color="#ffbc5e"/>
    </linearGradient>
    <linearGradient id="linear-gradient1" x1="50" y1="129.6" x2="184.9" y2="129.6" gradientUnits="userSpaceOnUse">
      <stop offset="0" stop-color="#ffdb6e" stop-opacity="0"/>
      <stop offset="0" stop-color="#ffbc5e"/>
      <stop offset="1" stop-color="#fff" stop-opacity="0"/>
    </linearGradient>
    <linearGradient id="linear-gradient2" x1="66.3" y1="65.8" x2="168.5" y2="168" gradientUnits="userSpaceOnUse">
      <stop offset="0" stop-color="#ffdb6e"/>
      <stop offset="1" stop-color="#ffbc5e"/>
    </linearGradient>
    <linearGradient id="linear-gradient3" x1="119.8" y1="102.6" x2="148.6" y2="131.3" gradientUnits="userSpaceOnUse">
      <stop offset="0" stop-color="#ffdb6e"/>
      <stop offset="1" stop-color="#ffbc5e"/>
    </linearGradient>
    <linearGradient id="linear-gradient4" x1="86.2" y1="102.6" x2="114.8" y2="131.1" xlink:href="#linear-gradient3"/>
    <linearGradient id="linear-gradient5" x1="69" y1="116.5" x2="169" y2="116.5" gradientUnits="userSpaceOnUse">
      <stop offset="0" stop-color="#ffdb6e" stop-opacity="0"/>
      <stop offset="1" stop-color="#fff" stop-opacity="0"/>
    </linearGradient>
    <linearGradient id="linear-gradient6" x1="69" y1="116.5" x2="169" y2="116.5" gradientUnits="userSpaceOnUse">
      <stop offset="0" stop-color="#ffdb6e" stop-opacity="0"/>
      <stop offset="0" stop-color="#ffbc5e"/>
      <stop offset="1" stop-color="#ffdb6e"/>
    </linearGradient>
  </defs>
  <path class="st8" d="M98.1.2l37.3-.2c8.3.8,8.2,14.1,10.4,20.3.5.9,11.8,4.7,13.9,5.6,1.4.6,3.9,2.4,5,2.5,2,.3,12.8-8.4,17.2-8.8,1.1,0,4.4,1.1,5.5,1.8,6.9,8.4,18.4,16.3,24.7,24.7.7.9,1.9,2.9,2.1,3.9,1.2,5.5-6.2,13.8-8.8,18.7-.2.8,3.4,7,4.1,8.5,1,2.4,2.7,9.1,3.7,10.5,1.6,2.3,13.5,2.9,16.9,4.9,2.1,1.3,4.2,5.1,4.5,7.5-.7,10.9,1,23.1,0,33.8-.3,2.8-2.2,5.9-4.7,7.3-3.6,1.9-14.4,2.9-16.3,4.7-.8.8-3.3,8.9-4.1,10.9-1.3,3.1-4.4,6.3-3,9.8,3.2,6.6,11.5,13.4,6,20.9l-24.6,24.8c-7.2,5.4-16-3.9-22.4-6.8-6.2,3-12.7,5.4-19.1,7.9-2.6,5.4-2.5,19.6-10.1,20.6-11.8-.8-25,1.1-36.7,0-8.3-.8-8.2-14.1-10.4-20.3-.6-.9-11.8-4.7-13.9-5.6-1.6-.7-4.8-3-6.2-2.6l-13.7,8.1c-2.6.2-5.5.6-7.7-1l-26.1-26.4c-3.6-7.1,4-13.2,6.8-19.2.4-.9.6-1.4.6-2.4,0-1.9-3.9-9-4.9-11.6-1.4-3.4-.9-6.7-4.6-8.1-6.9-2.5-16.8-1.2-18.9-10.3.8-11.1-1.1-23.6,0-34.5,1-10.1,12-8.5,18.9-11,.6-.2,1.6-.5,2.1-.9.9-.8,3.2-8.8,4.1-10.9s3.8-6.5,4.1-8c.2-1.1-8-12.7-8.8-15-.5-2.5,0-4.7,1-7l25.4-25.5c2.9-2,5.4-2.4,8.6-1.1,4.9,1.9,9.2,5.6,13.9,7.8l19-7.8c3.2-6.7,1.5-17.2,9.4-20.5h0ZM127.5,16.6c-.7-.7-17.5.4-20.1,0-2.6,6.5-1.4,16.3-9,19.1-4.6,1.7-9.4,2.4-14.2,4.5-5.8,2.5-10.9,7.7-17.4,6.3-2.8-.9-10.7-7.4-12.8-7.4-.4,0-.8,0-1.1.4l-12.6,12.9c0,4.6,4.7,8.7,6.5,12.8,2.9,6.5-3.7,13.5-6.2,19.7-.8,2-1.7,4.5-2.5,6.5-1.8,5.2-.6,9.3-6.9,11.9-4,1.7-9.2,2.3-13.5,3.4.6,2.8-.8,20.3,0,21,.2.1,1.2,0,1.8,0,5.2,1.1,14.2,2.5,16.5,7.5,2.1,4.5,3,10.8,5.2,15.8s7.4,11,6.2,16c-.3,1.2-2.2,4.6-3,6-1.1,2.1-5.2,6.8-4,8.8,2.8,1.7,11.5,12.9,13.5,13.5.8.2,11.3-7.1,13.7-7.9,2-.6,3.6-.3,5.5.6,4.3,1.9,8.7,5.1,13.2,7,4,1.6,11,2.6,14.2,4.5,3.9,2.3,4.9,12,6.2,16.3.1.4.5,1.9.6,2,.7.7,17.5-.4,20.1,0,1.9-4.7,2.2-15,6.4-18,3-2.1,10.7-3.3,14.6-4.8,5.3-2.1,10.1-5.7,15.5-7.7,1.1-.4,2.1-.2,3.3.2,4.1,1.3,9.2,5.7,13.1,7.9l1.1-.3c1.8-2.9,12.8-11.5,13.4-13.6.2-.6,0-1.2-.3-1.8-2.4-4.6-7.9-10.7-7.1-16.1,2.4-5.5,5.7-10.5,7.9-16.1,1.6-4.1,2.9-12.6,6-15,2.4-1.9,10.3-3.6,13.7-4.3.8-.2,2.4,0,2.4-.2.8-.7-.6-18.2,0-21-4.5-1.4-13.7-2-16.8-5.3-2.6-2.7-2.4-6.7-3.5-10-2.4-6.9-5.7-13.5-9.4-19.8l.2-5.5,7.1-11.7c.2-1.3-1.2-3.3-2.1-4.4-1.1-1.3-10.2-10.6-10.9-10.8-.6-.2-1.2,0-1.8.3-5.3,3-10.3,8.1-16.8,7.2-2.5-.4-9.2-5-12.3-6.4-2.6-1.1-5.5-2.1-8.2-3-5.1-1.7-9.4-.9-11.6-7.1-.8-2.3-2.6-12.7-3.4-13.5h0Z"/>
  <g>
    <path class="st1" d="M184.4,89.7c-1.2-11.7-10.2-20.5-21.3-22.9h-89.8c-12.3,1.7-21.1,10.5-22.8,22.8,1.2,17.5-1.4,36.8,0,54.1.8,9.6,9,20.5,18.5,22.7.8.2,4.1.9,4.4.9h35.5c.4,0,.3,8,0,8.2-.9.9-10.8-2.3-14.9,3.5-3.8,5.5-.8,11.9,5.5,13,11.6-.9,24.5,1,36,0,6.7-.6,9.5-9.8,4.5-14.3-4.1-3.7-13.3-1.6-13.9-2.2-.3-.3-.3-8,0-8.2h0s36.3,0,36.3,0c.1,0,.4-.5.9-.6,11.7-1.9,19.1-10.8,21.2-22.3-1.2-17.5,1.7-37.5,0-54.7ZM168.6,142.8c-.4,4-3.1,6.7-7.1,7.1h-85.3c-3.4-.4-5.9-2.4-7.1-5.6v-54.8c.8-3.7,3.9-5.3,7.3-6.2l83.7-.2c4.1.6,8.2,2.6,8.6,7.1,1.5,16.7-1.2,35.6,0,52.6Z"/>
    <path class="st0" d="M184.4,89.7c-1.2-11.7-10.2-20.5-21.3-22.9h-89.8c-12.3,1.7-21.1,10.5-22.8,22.8,1.2,17.5-1.4,36.8,0,54.1.8,9.6,9,20.5,18.5,22.7.8.2,4.1.9,4.4.9h35.5c.4,0,.3,8,0,8.2-.9.9-10.8-2.3-14.9,3.5-3.8,5.5-.8,11.9,5.5,13,11.6-.9,24.5,1,36,0,6.7-.6,9.5-9.8,4.5-14.3-4.1-3.7-13.3-1.6-13.9-2.2-.3-.3-.3-8,0-8.2h0s36.3,0,36.3,0c.1,0,.4-.5.9-.6,11.7-1.9,19.1-10.8,21.2-22.3-1.2-17.5,1.7-37.5,0-54.7ZM168.6,142.8c-.4,4-3.1,6.7-7.1,7.1h-85.3c-3.4-.4-5.9-2.4-7.1-5.6v-54.8c.8-3.7,3.9-5.3,7.3-6.2l83.7-.2c4.1.6,8.2,2.6,8.6,7.1,1.5,16.7-1.2,35.6,0,52.6Z"/>
  </g>
  <g>
    <path class="st2" d="M127.7,139.4c-1.7-1.7-2.1-6.6-1.3-8.9,1.2-3.5,9.8-9.2,12-12.7.2-.4.5-.5.3-1.1-.4-1.5-9.8-9.2-11.6-11.7-2.7-4-.7-12,4.5-12.7,2.8-.4,5.3-.2,7.5,1.5,4.4,3.3,10,10.2,14.2,14.3.7.7,1.9,1,2.7,1.8,3.1,3.2,4.3,8.2,1.5,12.1-4.7,6.3-13.6,12.4-18.7,18.7-1.8,1.3-4.2,1.4-6.3,1.1-.8-.1-4.3-2-4.7-2.4h0Z"/>
    <path class="st6" d="M127.7,139.4c-1.7-1.7-2.1-6.6-1.3-8.9,1.2-3.5,9.8-9.2,12-12.7.2-.4.5-.5.3-1.1-.4-1.5-9.8-9.2-11.6-11.7-2.7-4-.7-12,4.5-12.7,2.8-.4,5.3-.2,7.5,1.5,4.4,3.3,10,10.2,14.2,14.3.7.7,1.9,1,2.7,1.8,3.1,3.2,4.3,8.2,1.5,12.1-4.7,6.3-13.6,12.4-18.7,18.7-1.8,1.3-4.2,1.4-6.3,1.1-.8-.1-4.3-2-4.7-2.4h0Z"/>
  </g>
  <g>
    <path class="st2" d="M98.1,92.4c1.3-.3,3.8-.3,5.1-.1,5.1.7,7.2,8.7,4.5,12.7-1.7,2.5-11.1,10.2-11.6,11.7-.2.6,0,.7.3,1.1,2.2,3.4,8.3,7.3,10.9,10.8,5.6,7.6-4.1,17.3-11.6,11.7-3.4-2.5-15.8-15-18.3-18.4-2.6-3.5-1.8-8.5,1.2-11.6.7-.7,1.7-.9,2.2-1.5,4.2-4.3,10.5-11.7,14.9-15,.7-.5,1.6-1.2,2.4-1.4h0Z"/>
    <path class="st3" d="M98.1,92.4c1.3-.3,3.8-.3,5.1-.1,5.1.7,7.2,8.7,4.5,12.7-1.7,2.5-11.1,10.2-11.6,11.7-.2.6,0,.7.3,1.1,2.2,3.4,8.3,7.3,10.9,10.8,5.6,7.6-4.1,17.3-11.6,11.7-3.4-2.5-15.8-15-18.3-18.4-2.6-3.5-1.8-8.5,1.2-11.6.7-.7,1.7-.9,2.2-1.5,4.2-4.3,10.5-11.7,14.9-15,.7-.5,1.6-1.2,2.4-1.4h0Z"/>
  </g>
  <g class="st4">
    <path class="st5" d="M168.6,142.8c-.4,4-3.1,6.7-7.1,7.1h-85.3c-3.4-.4-5.9-2.4-7.1-5.6v-54.8c.8-3.7,3.9-5.3,7.3-6.2l83.7-.2c4.1.6,8.2,2.6,8.6,7.1,1.5,16.7-1.2,35.6,0,52.6Z"/>
    <path class="st7" d="M168.6,142.8c-.4,4-3.1,6.7-7.1,7.1h-85.3c-3.4-.4-5.9-2.4-7.1-5.6v-54.8c.8-3.7,3.9-5.3,7.3-6.2l83.7-.2c4.1.6,8.2,2.6,8.6,7.1,1.5,16.7-1.2,35.6,0,52.6Z"/>
  </g>
</svg>