<?xml version="1.0" encoding="UTF-8"?>
<svg id="Layer_1" data-name="Layer 1" xmlns="http://www.w3.org/2000/svg" xmlns:xlink="http://www.w3.org/1999/xlink" viewBox="0 0 340.72 242.78">
  <defs>
    <style>
      .cls-1 {
        fill: url(#linear-gradient-2);
      }

      .cls-2 {
        fill: url(#linear-gradient);
      }
    </style>
    <linearGradient id="linear-gradient" x1="11.58" y1="-1.37" x2="251.24" y2="215.89" gradientUnits="userSpaceOnUse">
      <stop offset=".35" stop-color="#ffdb6e"/>
      <stop offset="1" stop-color="#ffbc5e"/>
    </linearGradient>
    <linearGradient id="linear-gradient-2" x1="309.36" y1="209.61" x2="339.81" y2="242.27" gradientUnits="userSpaceOnUse">
      <stop offset="0" stop-color="#ffdb6e"/>
      <stop offset="1" stop-color="#ffbc5e"/>
    </linearGradient>
  </defs>
  <path class="cls-2" d="M151,.04l115.54-.04c97.59,8.33,99.26,157.12,2.83,169.91l-73.37,1.13v69.5c0,.11-1.39,1.5-1.5,1.5h-32c-2.53,0-9.53-9.37-11.31-11.69-30.62-39.79-58.82-83.75-88.37-124.63-5.77-7.99-11.61-16.03-17.81-23.68v159c-.13-.89-.47-.56-1.01,1-12.79-1.14-28.08,1.51-40.55.05-1.01-.12-3.45-.46-3.45-1.55V.04h49c32.47,47.83,66.68,94.49,100.99,141V.04M196,129.04c.13.38-.09.82.56.91,2.14.28,4.31,0,6.44.09,2.65.1,5.34-.03,8,0,27.64.27,64.23,4.92,83.51-18.99,15.52-19.24,10.75-53.09-11.21-65.82-4.27-2.47-17.23-7.19-21.81-7.19h-65.5v91Z"/>
  <path class="cls-1" d="M340.72,209.78v31.5c0,.11-1.39,1.5-1.5,1.5h-30c-.11,0-1.5-1.39-1.5-1.5v-30c0-.11,1.39-1.5,1.5-1.5h31.5Z"/>
</svg>